<svg width="107" height="75" viewBox="0 0 107 75" fill="none" xmlns="http://www.w3.org/2000/svg">
<g clip-path="url(#clip0_569_21)">
<mask id="path-1-inside-1_569_21" fill="white">
<path fill-rule="evenodd" clip-rule="evenodd" d="M69.7793 7.99317C68.869 11.5111 65.6734 14.1093 61.871 14.1093C58.0688 14.1093 54.8734 11.5114 53.9629 7.99386C52.8534 8.30588 51.7611 8.68391 50.6919 9.12676C47.7642 10.3395 45.0574 12.0187 42.6752 14.0952C41.8425 14.821 41.8468 16.0931 42.6279 16.8742L48.0629 22.3092C48.8439 23.0902 50.104 23.0799 50.9689 22.3928C52.2431 21.3806 53.6546 20.5487 55.1641 19.9235C57.2909 19.0426 59.5703 18.5891 61.8723 18.5892C64.1743 18.5892 66.4538 19.0426 68.5806 19.9235C70.09 20.5487 71.5016 21.3806 72.7758 22.3929C73.6407 23.0799 74.9007 23.0903 75.6817 22.3092L81.1168 16.8742C81.8978 16.0931 81.9021 14.821 81.0695 14.0952C78.6873 12.0187 75.9805 10.3395 73.0527 9.12677C71.9828 8.68358 70.8896 8.30532 69.7793 7.99317Z"/>
</mask>
<path fill-rule="evenodd" clip-rule="evenodd" d="M69.7793 7.99317C68.869 11.5111 65.6734 14.1093 61.871 14.1093C58.0688 14.1093 54.8734 11.5114 53.9629 7.99386C52.8534 8.30588 51.7611 8.68391 50.6919 9.12676C47.7642 10.3395 45.0574 12.0187 42.6752 14.0952C41.8425 14.821 41.8468 16.0931 42.6279 16.8742L48.0629 22.3092C48.8439 23.0902 50.104 23.0799 50.9689 22.3928C52.2431 21.3806 53.6546 20.5487 55.1641 19.9235C57.2909 19.0426 59.5703 18.5891 61.8723 18.5892C64.1743 18.5892 66.4538 19.0426 68.5806 19.9235C70.09 20.5487 71.5016 21.3806 72.7758 22.3929C73.6407 23.0799 74.9007 23.0903 75.6817 22.3092L81.1168 16.8742C81.8978 16.0931 81.9021 14.821 81.0695 14.0952C78.6873 12.0187 75.9805 10.3395 73.0527 9.12677C71.9828 8.68358 70.8896 8.30532 69.7793 7.99317Z" fill="#FD5F07"/>
<path d="M69.7793 7.99317L71.4031 2.21708L65.5053 0.559011L63.9706 6.49016L69.7793 7.99317ZM53.9629 7.99386L59.7714 6.49034L58.2362 0.559329L52.3385 2.21792L53.9629 7.99386ZM50.6919 9.12676L48.3958 3.58348L50.6919 9.12676ZM42.6752 14.0952L38.7327 9.57229L38.7327 9.57229L42.6752 14.0952ZM42.6279 16.8742L38.3852 21.1168H38.3852L42.6279 16.8742ZM48.0629 22.3092L43.8203 26.5518L43.8203 26.5518L48.0629 22.3092ZM50.9689 22.3928L54.7009 27.0909L54.7009 27.0909L50.9689 22.3928ZM55.1641 19.9235L52.868 14.3802V14.3802L55.1641 19.9235ZM61.8723 18.5892L61.8723 12.5892L61.8723 18.5892ZM68.5806 19.9235L66.2844 25.4668L66.2845 25.4668L68.5806 19.9235ZM72.7758 22.3929L69.0437 27.0909L69.0437 27.0909L72.7758 22.3929ZM75.6817 22.3092L71.4391 18.0666L71.4391 18.0666L75.6817 22.3092ZM81.1168 16.8742L76.8741 12.6315L76.8741 12.6315L81.1168 16.8742ZM81.0695 14.0952L85.012 9.57232L85.012 9.57231L81.0695 14.0952ZM73.0527 9.12677L75.3488 3.5835V3.5835L73.0527 9.12677ZM63.9706 6.49016C63.7286 7.42537 62.8721 8.10927 61.871 8.10927V20.1093C68.4748 20.1093 74.0094 15.5968 75.588 9.49617L63.9706 6.49016ZM61.871 8.10927C60.87 8.10927 60.0135 7.42546 59.7714 6.49034L48.1543 9.49738C49.7332 15.5974 55.2676 20.1093 61.871 20.1093V8.10927ZM52.988 14.67C53.8376 14.3181 54.7056 14.0177 55.5872 13.7698L52.3385 2.21792C51.0012 2.59402 49.6845 3.04968 48.3958 3.58348L52.988 14.67ZM46.6177 18.6181C48.5106 16.9681 50.6615 15.6337 52.988 14.67L48.3958 3.58348C44.8668 5.04526 41.6041 7.06935 38.7327 9.57229L46.6177 18.6181ZM46.8705 12.6315C48.349 14.11 48.611 16.8805 46.6177 18.6181L38.7327 9.57229C35.074 12.7615 35.3446 18.0762 38.3852 21.1168L46.8705 12.6315ZM52.3055 18.0666L46.8705 12.6315L38.3852 21.1168L43.8203 26.5518L52.3055 18.0666ZM47.2368 17.6948C48.4212 16.7539 50.6379 16.3989 52.3055 18.0666L43.8203 26.5518C47.05 29.7816 51.7867 29.4059 54.7009 27.0909L47.2368 17.6948ZM52.868 14.3802C50.8419 15.2195 48.9472 16.3361 47.2368 17.6948L54.7009 27.0909C55.539 26.4252 56.4674 25.878 57.4602 25.4668L52.868 14.3802ZM61.8723 12.5892C58.7824 12.5891 55.7227 13.1978 52.868 14.3802L57.4602 25.4668C58.859 24.8874 60.3582 24.5891 61.8723 24.5891L61.8723 12.5892ZM70.8767 14.3802C68.0219 13.1978 64.9623 12.5892 61.8723 12.5892L61.8723 24.5891C63.3864 24.5892 64.8856 24.8874 66.2844 25.4668L70.8767 14.3802ZM76.5078 17.6948C74.7975 16.3361 72.9028 15.2195 70.8767 14.3802L66.2845 25.4668C67.2772 25.878 68.2056 26.4252 69.0437 27.0909L76.5078 17.6948ZM71.4391 18.0666C73.1067 16.3989 75.3234 16.7539 76.5078 17.6948L69.0437 27.0909C71.9579 29.4059 76.6947 29.7816 79.9244 26.5519L71.4391 18.0666ZM76.8741 12.6315L71.4391 18.0666L79.9244 26.5519L85.3594 21.1168L76.8741 12.6315ZM77.127 18.6181C75.1336 16.8805 75.3956 14.11 76.8741 12.6315L85.3594 21.1168C88.4 18.0762 88.6706 12.7615 85.012 9.57232L77.127 18.6181ZM70.7566 14.67C73.0831 15.6337 75.234 16.9681 77.127 18.6181L85.012 9.57231C82.1406 7.06937 78.8779 5.04528 75.3488 3.5835L70.7566 14.67ZM68.1554 13.7692C69.0378 14.0173 69.9064 14.3179 70.7566 14.67L75.3488 3.5835C74.0591 3.04929 72.7415 2.59335 71.4031 2.21708L68.1554 13.7692Z" fill="#FD5F07" mask="url(#path-1-inside-1_569_21)"/>
<circle cx="61.8722" cy="5.94054" r="4.94054" stroke="#FD5F07" stroke-width="2"/>
<mask id="path-4-inside-2_569_21" fill="white">
<path fill-rule="evenodd" clip-rule="evenodd" d="M81.0695 61.1122C81.9021 60.3864 81.8978 59.1143 81.1168 58.3332L75.6817 52.8982C74.9007 52.1172 73.6407 52.1275 72.7758 52.8146C71.5015 53.8268 70.09 54.6587 68.5805 55.2839C66.4538 56.1648 64.1743 56.6183 61.8723 56.6183C59.5703 56.6183 57.2908 56.1648 55.1641 55.2839C53.6546 54.6587 52.2431 53.8268 50.9689 52.8146C50.104 52.1275 48.8439 52.1172 48.0629 52.8982L42.6279 58.3332C41.8468 59.1143 41.8425 60.3864 42.6752 61.1122C45.0574 63.1887 47.7642 64.8679 50.6919 66.0806C51.7458 66.5172 52.8221 66.8907 53.9153 67.2001C54.7568 63.5846 57.9993 60.891 61.871 60.891C65.7429 60.891 68.9856 63.585 69.8269 67.2008C70.9209 66.8913 71.9981 66.5175 73.0527 66.0806C75.9805 64.8679 78.6873 63.1887 81.0695 61.1122Z"/>
</mask>
<path fill-rule="evenodd" clip-rule="evenodd" d="M81.0695 61.1122C81.9021 60.3864 81.8978 59.1143 81.1168 58.3332L75.6817 52.8982C74.9007 52.1172 73.6407 52.1275 72.7758 52.8146C71.5015 53.8268 70.09 54.6587 68.5805 55.2839C66.4538 56.1648 64.1743 56.6183 61.8723 56.6183C59.5703 56.6183 57.2908 56.1648 55.1641 55.2839C53.6546 54.6587 52.2431 53.8268 50.9689 52.8146C50.104 52.1275 48.8439 52.1172 48.0629 52.8982L42.6279 58.3332C41.8468 59.1143 41.8425 60.3864 42.6752 61.1122C45.0574 63.1887 47.7642 64.8679 50.6919 66.0806C51.7458 66.5172 52.8221 66.8907 53.9153 67.2001C54.7568 63.5846 57.9993 60.891 61.871 60.891C65.7429 60.891 68.9856 63.585 69.8269 67.2008C70.9209 66.8913 71.9981 66.5175 73.0527 66.0806C75.9805 64.8679 78.6873 63.1887 81.0695 61.1122Z" fill="#FD5F07"/>
<path d="M81.1168 58.3332L85.3594 54.0906V54.0906L81.1168 58.3332ZM81.0695 61.1122L77.127 56.5893V56.5893L81.0695 61.1122ZM75.6817 52.8982L71.4391 57.1408L71.4391 57.1408L75.6817 52.8982ZM72.7758 52.8146L76.5078 57.5126L76.5078 57.5126L72.7758 52.8146ZM68.5805 55.2839L70.8766 60.8272H70.8766L68.5805 55.2839ZM55.1641 55.2839L52.868 60.8272L52.868 60.8272L55.1641 55.2839ZM50.9689 52.8146L54.7009 48.1165H54.7009L50.9689 52.8146ZM48.0629 52.8982L43.8203 48.6556L43.8203 48.6556L48.0629 52.8982ZM42.6279 58.3332L38.3852 54.0906L38.3852 54.0906L42.6279 58.3332ZM42.6752 61.1122L38.7327 65.6351L42.6752 61.1122ZM50.6919 66.0806L52.988 60.5374L52.988 60.5374L50.6919 66.0806ZM53.9153 67.2001L52.2811 72.9733L58.3331 74.6863L59.759 68.5603L53.9153 67.2001ZM69.8269 67.2008L63.983 68.5605L65.4083 74.6867L71.4605 72.9741L69.8269 67.2008ZM73.0527 66.0806L75.3488 71.6239L75.3488 71.6239L73.0527 66.0806ZM76.8741 62.5759C75.3956 61.0974 75.1336 58.3269 77.127 56.5893L85.012 65.6351C88.6706 62.4459 88.4 57.1312 85.3594 54.0906L76.8741 62.5759ZM71.4391 57.1408L76.8741 62.5759L85.3594 54.0906L79.9244 48.6556L71.4391 57.1408ZM76.5078 57.5126C75.3234 58.4535 73.1067 58.8085 71.4391 57.1408L79.9244 48.6556C76.6947 45.4259 71.9579 45.8015 69.0437 48.1165L76.5078 57.5126ZM70.8766 60.8272C72.9028 59.9879 74.7975 58.8713 76.5078 57.5126L69.0437 48.1165C68.2056 48.7822 67.2772 49.3294 66.2844 49.7406L70.8766 60.8272ZM61.8723 62.6183C64.9622 62.6183 68.0219 62.0096 70.8766 60.8272L66.2844 49.7406C64.8856 50.32 63.3864 50.6183 61.8723 50.6183V62.6183ZM52.868 60.8272C55.7227 62.0096 58.7824 62.6183 61.8723 62.6183V50.6183C60.3582 50.6183 58.859 50.32 57.4602 49.7406L52.868 60.8272ZM47.2368 57.5126C48.9472 58.8713 50.8419 59.9879 52.868 60.8272L57.4602 49.7406C56.4674 49.3294 55.539 48.7822 54.7009 48.1165L47.2368 57.5126ZM52.3055 57.1408C50.6379 58.8085 48.4212 58.4535 47.2368 57.5126L54.7009 48.1165C51.7867 45.8015 47.05 45.4258 43.8203 48.6556L52.3055 57.1408ZM46.8705 62.5759L52.3055 57.1408L43.8203 48.6556L38.3852 54.0906L46.8705 62.5759ZM46.6177 56.5893C48.6111 58.3269 48.349 61.0974 46.8705 62.5759L38.3852 54.0906C35.3446 57.1312 35.074 62.4459 38.7327 65.6351L46.6177 56.5893ZM52.988 60.5374C50.6615 59.5737 48.5106 58.2393 46.6177 56.5893L38.7327 65.6351C41.6041 68.1381 44.8668 70.1621 48.3958 71.6239L52.988 60.5374ZM55.5494 61.4269C54.6807 61.1811 53.8255 60.8842 52.988 60.5374L48.3958 71.6239C49.6661 72.1501 50.9635 72.6003 52.2811 72.9733L55.5494 61.4269ZM59.759 68.5603C59.9823 67.6011 60.851 66.891 61.871 66.891V54.891C55.1477 54.891 49.5313 59.5682 48.0715 65.8399L59.759 68.5603ZM61.871 66.891C62.8911 66.891 63.7598 67.6012 63.983 68.5605L75.6708 65.8411C74.2114 59.5688 68.5947 54.891 61.871 54.891V66.891ZM70.7566 60.5374C69.9185 60.8845 69.0626 61.1815 68.1933 61.4275L71.4605 72.9741C72.7792 72.601 74.0776 72.1505 75.3488 71.6239L70.7566 60.5374ZM77.127 56.5893C75.234 58.2393 73.0831 59.5737 70.7566 60.5374L75.3488 71.6239C78.8778 70.1621 82.1405 68.1381 85.012 65.6351L77.127 56.5893Z" fill="#FD5F07" mask="url(#path-4-inside-2_569_21)"/>
<circle cx="61.8722" cy="69.0597" r="4.94054" stroke="#FD5F07" stroke-width="2"/>
<mask id="path-7-inside-3_569_21" fill="white">
<path fill-rule="evenodd" clip-rule="evenodd" d="M45.163 49.998L39.78 55.381C37.8875 53.1874 36.3545 50.7023 35.2426 48.0178C34.816 46.9879 34.4539 45.9349 34.1577 44.865C33.5846 45.2112 32.9654 45.4891 32.3117 45.6871C32.6139 46.7365 32.9752 47.7702 33.3948 48.7832C34.6075 51.7109 36.2867 54.4177 38.3632 56.7999C39.089 57.6326 40.3611 57.6283 41.1422 56.8472L46.5772 51.4122C47.3583 50.6311 47.3479 49.3711 46.6609 48.5062C45.6487 47.232 44.8168 45.8205 44.1915 44.311C43.3106 42.1842 42.8572 39.9048 42.8572 37.6028C42.8572 35.3008 43.3106 33.0213 44.1915 30.8945C44.8168 29.3851 45.6487 27.9735 46.6609 26.6993C47.3479 25.8344 47.3583 24.5744 46.5772 23.7934L41.1422 18.3583C40.3612 17.5773 39.089 17.573 38.3632 18.4056C36.2868 20.7878 34.6075 23.4946 33.3948 26.4224C32.9099 27.5931 32.5027 28.7915 32.1748 30.0098C32.8324 30.1965 33.4562 30.4634 34.0349 30.7994C34.352 29.5715 34.7551 28.3646 35.2426 27.1878C36.3545 24.5032 37.8875 22.0182 39.78 19.8246L45.163 25.2076C45.1642 25.2087 45.1632 25.2074 45.1636 25.2082C45.1647 25.211 45.1695 25.2243 45.1699 25.2501C45.1709 25.3074 45.1496 25.3863 45.0949 25.4553C43.9672 26.8749 43.0404 28.4475 42.3438 30.1292C41.3623 32.4986 40.8572 35.0381 40.8572 37.6028C40.8572 40.1674 41.3623 42.707 42.3438 45.0764C43.0404 46.758 43.9672 48.3307 45.0949 49.7502C45.1496 49.8192 45.1709 49.8982 45.1699 49.9555C45.1695 49.9812 45.1647 49.9946 45.1636 49.9973C45.1632 49.9982 45.1642 49.9968 45.163 49.998Z"/>
</mask>
<path fill-rule="evenodd" clip-rule="evenodd" d="M45.163 49.998L39.78 55.381C37.8875 53.1874 36.3545 50.7023 35.2426 48.0178C34.816 46.9879 34.4539 45.9349 34.1577 44.865C33.5846 45.2112 32.9654 45.4891 32.3117 45.6871C32.6139 46.7365 32.9752 47.7702 33.3948 48.7832C34.6075 51.7109 36.2867 54.4177 38.3632 56.7999C39.089 57.6326 40.3611 57.6283 41.1422 56.8472L46.5772 51.4122C47.3583 50.6311 47.3479 49.3711 46.6609 48.5062C45.6487 47.232 44.8168 45.8205 44.1915 44.311C43.3106 42.1842 42.8572 39.9048 42.8572 37.6028C42.8572 35.3008 43.3106 33.0213 44.1915 30.8945C44.8168 29.3851 45.6487 27.9735 46.6609 26.6993C47.3479 25.8344 47.3583 24.5744 46.5772 23.7934L41.1422 18.3583C40.3612 17.5773 39.089 17.573 38.3632 18.4056C36.2868 20.7878 34.6075 23.4946 33.3948 26.4224C32.9099 27.5931 32.5027 28.7915 32.1748 30.0098C32.8324 30.1965 33.4562 30.4634 34.0349 30.7994C34.352 29.5715 34.7551 28.3646 35.2426 27.1878C36.3545 24.5032 37.8875 22.0182 39.78 19.8246L45.163 25.2076C45.1642 25.2087 45.1632 25.2074 45.1636 25.2082C45.1647 25.211 45.1695 25.2243 45.1699 25.2501C45.1709 25.3074 45.1496 25.3863 45.0949 25.4553C43.9672 26.8749 43.0404 28.4475 42.3438 30.1292C41.3623 32.4986 40.8572 35.0381 40.8572 37.6028C40.8572 40.1674 41.3623 42.707 42.3438 45.0764C43.0404 46.758 43.9672 48.3307 45.0949 49.7502C45.1496 49.8192 45.1709 49.8982 45.1699 49.9555C45.1695 49.9812 45.1647 49.9946 45.1636 49.9973C45.1632 49.9982 45.1642 49.9968 45.163 49.998Z" fill="#FD5F07"/>
<path d="M39.78 55.381L35.2371 59.3004L39.4559 64.1904L44.0227 59.6236L39.78 55.381ZM45.163 49.998L49.4057 54.2406L49.411 54.2353L45.163 49.998ZM35.2426 48.0178L29.6993 50.3139L29.6993 50.3139L35.2426 48.0178ZM34.1577 44.865L39.9401 43.264L37.8285 35.6373L31.0551 39.7295L34.1577 44.865ZM32.3117 45.6871L30.572 39.9449L24.9084 41.6607L26.546 47.3474L32.3117 45.6871ZM33.3948 48.7832L38.9381 46.4871L38.9381 46.4871L33.3948 48.7832ZM38.3632 56.7999L33.8403 60.7424L33.8403 60.7424L38.3632 56.7999ZM41.1422 56.8472L36.8996 52.6046L41.1422 56.8472ZM46.5772 51.4122L50.8199 55.6548H50.8199L46.5772 51.4122ZM46.6609 48.5062L51.359 44.7742L51.359 44.7742L46.6609 48.5062ZM44.1915 44.311L38.6483 46.6071L38.6483 46.6071L44.1915 44.311ZM42.8572 37.6028L48.8572 37.6028V37.6028H42.8572ZM44.1915 30.8945L38.6483 28.5984L38.6483 28.5984L44.1915 30.8945ZM46.6609 26.6993L41.9628 22.9673L41.9628 22.9673L46.6609 26.6993ZM46.5772 23.7934L42.3346 28.036L46.5772 23.7934ZM41.1422 18.3583L45.3848 14.1157V14.1157L41.1422 18.3583ZM38.3632 18.4056L42.8862 22.3481L38.3632 18.4056ZM33.3948 26.4224L27.8515 24.1263L27.8515 24.1263L33.3948 26.4224ZM32.1748 30.0098L26.381 28.4505L24.8428 34.1657L30.5365 35.7818L32.1748 30.0098ZM34.0349 30.7994L31.0225 35.9884L37.8663 39.9615L39.8445 32.2993L34.0349 30.7994ZM35.2426 27.1878L40.7858 29.4839L40.7858 29.4839L35.2426 27.1878ZM39.78 19.8246L44.0227 15.5819L39.4559 11.0152L35.2371 15.9052L39.78 19.8246ZM45.163 25.2076L49.4066 20.9658L49.4057 20.9649L45.163 25.2076ZM45.1636 25.2082L39.6051 27.4674L39.6054 27.4681L45.1636 25.2082ZM45.1699 25.2501L51.169 25.1446L51.169 25.1444L45.1699 25.2501ZM45.0949 25.4553L40.3968 21.7232L40.3968 21.7233L45.0949 25.4553ZM42.3438 30.1292L36.8005 27.8331L36.8005 27.8331L42.3438 30.1292ZM40.8572 37.6028L34.8572 37.6028V37.6028L40.8572 37.6028ZM42.3438 45.0764L36.8005 47.3725L36.8005 47.3725L42.3438 45.0764ZM45.0949 49.7502L40.3968 53.4823L40.3968 53.4823L45.0949 49.7502ZM45.1699 49.9555L51.169 50.0616L51.169 50.061L45.1699 49.9555ZM45.1636 49.9973L39.6053 47.7378L39.6022 47.7454L45.1636 49.9973ZM44.0227 59.6236L49.4057 54.2406L40.9204 45.7553L35.5374 51.1383L44.0227 59.6236ZM29.6993 50.3139C31.0564 53.5902 32.9273 56.6232 35.2371 59.3004L44.323 51.4616C42.8477 49.7516 41.6527 47.8144 40.7858 45.7217L29.6993 50.3139ZM28.3752 46.466C28.7368 47.7718 29.1786 49.0569 29.6993 50.3139L40.7858 45.7217C40.4533 44.9188 40.1711 44.098 39.9401 43.264L28.3752 46.466ZM31.0551 39.7295C30.9032 39.8212 30.7412 39.8936 30.572 39.9449L34.0513 51.4294C35.1897 51.0845 36.266 50.6013 37.2603 50.0005L31.0551 39.7295ZM26.546 47.3474C26.9102 48.6123 27.3458 49.8583 27.8515 51.0793L38.9381 46.4871C38.6047 45.6822 38.3175 44.8608 38.0774 44.0269L26.546 47.3474ZM27.8515 51.0793C29.3133 54.6083 31.3374 57.871 33.8403 60.7424L42.8862 52.8574C41.2361 50.9645 39.9017 48.8136 38.9381 46.4871L27.8515 51.0793ZM33.8403 60.7424C37.0295 64.4011 42.3443 64.1305 45.3848 61.0899L36.8996 52.6046C38.378 51.1261 41.1486 50.864 42.8862 52.8574L33.8403 60.7424ZM45.3848 61.0899L50.8199 55.6548L42.3346 47.1696L36.8996 52.6046L45.3848 61.0899ZM50.8199 55.6548C54.0496 52.4251 53.6739 47.6884 51.359 44.7742L41.9628 52.2383C41.022 51.0539 40.667 48.8372 42.3346 47.1696L50.8199 55.6548ZM51.359 44.7742C50.6932 43.9361 50.146 43.0077 49.7348 42.0149L38.6483 46.6071C39.4875 48.6332 40.6042 50.5279 41.9628 52.2383L51.359 44.7742ZM49.7348 42.0149C49.1554 40.6161 48.8572 39.1168 48.8572 37.6028L36.8572 37.6028C36.8572 40.6927 37.4658 43.7524 38.6483 46.6071L49.7348 42.0149ZM48.8572 37.6028C48.8572 36.0887 49.1554 34.5895 49.7348 33.1906L38.6483 28.5984C37.4658 31.4532 36.8572 34.5128 36.8572 37.6028H48.8572ZM49.7348 33.1906C50.146 32.1979 50.6932 31.2695 51.359 30.4314L41.9628 22.9673C40.6042 24.6776 39.4875 26.5723 38.6483 28.5984L49.7348 33.1906ZM51.359 30.4314C53.6739 27.5172 54.0496 22.7804 50.8199 19.5507L42.3346 28.036C40.667 26.3684 41.022 24.1517 41.9628 22.9673L51.359 30.4314ZM50.8199 19.5507L45.3848 14.1157L36.8996 22.601L42.3346 28.036L50.8199 19.5507ZM45.3848 14.1157C42.3443 11.0751 37.0295 10.8044 33.8403 14.4631L42.8862 22.3481C41.1486 24.3415 38.3781 24.0795 36.8996 22.601L45.3848 14.1157ZM33.8403 14.4631C31.3374 17.3346 29.3133 20.5972 27.8515 24.1263L38.9381 28.7185C39.9017 26.392 41.2361 24.2411 42.8862 22.3481L33.8403 14.4631ZM27.8515 24.1263C27.267 25.5374 26.7762 26.9819 26.381 28.4505L37.9686 31.5692C38.2292 30.601 38.5528 29.6487 38.9381 28.7185L27.8515 24.1263ZM30.5365 35.7818C30.7067 35.8301 30.8695 35.8996 31.0225 35.9884L37.0474 25.6105C36.0429 25.0273 34.9581 24.5628 33.8131 24.2378L30.5365 35.7818ZM29.6993 24.8917C29.1044 26.3279 28.6123 27.801 28.2254 29.2996L39.8445 32.2993C40.0916 31.3421 40.4058 30.4012 40.7858 29.4839L29.6993 24.8917ZM35.2371 15.9052C32.9273 18.5824 31.0564 21.6153 29.6993 24.8917L40.7858 29.4839C41.6527 27.3912 42.8477 25.454 44.323 23.744L35.2371 15.9052ZM49.4057 20.9649L44.0227 15.5819L35.5374 24.0672L40.9204 29.4502L49.4057 20.9649ZM50.722 22.9491C50.7662 23.0577 50.9193 23.4356 51.0289 23.9442C51.0607 24.0917 51.098 24.2916 51.1251 24.5305C51.1512 24.7603 51.177 25.1031 51.1554 25.5186C51.135 25.912 51.0634 26.5623 50.7819 27.3135C50.4916 28.0881 49.9092 29.1402 48.7862 29.9908C47.6145 30.8783 46.3068 31.2029 45.19 31.2079C44.1615 31.2124 43.3578 30.9526 42.8845 30.7582C42.3901 30.5552 42.0143 30.3235 41.7715 30.1571C41.5179 29.9833 41.3155 29.8158 41.1659 29.6822C40.8726 29.4201 40.6482 29.1677 40.4848 28.9642C40.3179 28.7563 40.1456 28.5133 39.9822 28.2335C39.8478 28.0033 39.5765 27.508 39.3851 26.8234C39.2896 26.4815 39.1475 25.8615 39.1651 25.0737C39.1825 24.2956 39.3707 22.9311 40.3648 21.6065C40.8683 20.9356 41.5016 20.3846 42.218 19.9809C42.9199 19.5853 43.6086 19.3826 44.1954 19.2867C45.3033 19.1055 46.1919 19.2791 46.6358 19.3915C47.1255 19.5154 47.5022 19.677 47.7262 19.7829C47.9656 19.8959 48.157 20.0058 48.2894 20.0866C48.5479 20.2444 48.7419 20.39 48.8489 20.4733C48.967 20.5652 49.0615 20.6459 49.1266 20.7032C49.2543 20.8155 49.3517 20.911 49.4066 20.9658L40.9195 29.4493C40.9746 29.5045 41.0722 29.6001 41.2001 29.7126C41.2653 29.77 41.3599 29.8508 41.478 29.9427C41.5851 30.026 41.7792 30.1717 42.0377 30.3295C42.1701 30.4103 42.3615 30.5202 42.6009 30.6332C42.825 30.7391 43.2017 30.9007 43.6914 31.0246C44.1353 31.137 45.0238 31.3106 46.1318 31.1294C46.7186 31.0335 47.4073 30.8308 48.1092 30.4352C48.8256 30.0316 49.4589 29.4805 49.9624 28.8096C50.9565 27.485 51.1447 26.1206 51.1621 25.3424C51.1797 24.5546 51.0377 23.9346 50.9421 23.5927C50.7507 22.908 50.4794 22.4128 50.345 22.1825C50.1815 21.9027 50.0092 21.6597 49.8423 21.4517C49.6789 21.2482 49.4545 20.9958 49.1612 20.7337C49.0116 20.6001 48.8092 20.4326 48.5555 20.2588C48.3128 20.0924 47.937 19.8606 47.4426 19.6576C46.9692 19.4632 46.1655 19.2034 45.137 19.208C44.0202 19.2129 42.7125 19.5376 41.5408 20.4251C40.4178 21.2757 39.8354 22.3277 39.5451 23.1024C39.2636 23.8536 39.1919 24.5039 39.1715 24.8973C39.15 25.3128 39.1757 25.6556 39.2019 25.8854C39.229 26.1244 39.2663 26.3243 39.2981 26.4718C39.4077 26.9805 39.5609 27.3586 39.6051 27.4674L50.722 22.9491ZM51.169 25.1444C51.156 24.4079 51.0118 23.6617 50.7217 22.9484L39.6054 27.4681C39.3176 26.7603 39.1829 26.0407 39.1708 25.3558L51.169 25.1444ZM49.7929 29.1874C50.7138 28.0282 51.1944 26.5924 51.169 25.1446L39.1708 25.3556C39.1474 24.0223 39.5855 22.7445 40.3968 21.7232L49.7929 29.1874ZM47.8871 32.4253C48.3696 31.2603 49.0117 30.1708 49.7929 29.1874L40.3968 21.7233C38.9226 23.579 37.7111 25.6347 36.8005 27.8331L47.8871 32.4253ZM46.8572 37.6028C46.8572 35.8261 47.2071 34.0667 47.8871 32.4253L36.8005 27.8331C35.5175 30.9305 34.8572 34.2502 34.8572 37.6028L46.8572 37.6028ZM47.8871 42.7803C47.2071 41.1388 46.8572 39.3795 46.8572 37.6028L34.8572 37.6028C34.8572 40.9554 35.5175 44.2751 36.8005 47.3725L47.8871 42.7803ZM49.7929 46.0182C49.0117 45.0347 48.3696 43.9453 47.8871 42.7803L36.8005 47.3725C37.7111 49.5708 38.9226 51.6266 40.3968 53.4823L49.7929 46.0182ZM51.169 50.061C51.1944 48.6131 50.7138 47.1774 49.7929 46.0182L40.3968 53.4823C39.5855 52.4611 39.1474 51.1832 39.1708 49.8499L51.169 50.061ZM50.7219 52.2568C51.0117 51.5439 51.1559 50.798 51.169 50.0616L39.1708 49.8493C39.183 49.1645 39.3177 48.4452 39.6053 47.7378L50.7219 52.2568ZM49.411 54.2353C49.3561 54.2904 49.2584 54.3863 49.1303 54.4992C49.0649 54.5568 48.97 54.638 48.8513 54.7304C48.7439 54.8141 48.5486 54.9608 48.2883 55.1196C48.155 55.201 47.9619 55.3117 47.7204 55.4255C47.4944 55.5319 47.1136 55.6947 46.6184 55.8185C46.169 55.9308 45.2702 56.1028 44.1522 55.9116C43.5601 55.8104 42.8691 55.6002 42.1682 55.1963C41.4534 54.7845 40.8271 54.2272 40.3325 53.5556C39.3583 52.2328 39.1794 50.8799 39.1647 50.1121C39.1498 49.3324 39.2908 48.7188 39.386 48.379C39.5765 47.6989 39.8456 47.2065 39.9799 46.9761C40.1427 46.6968 40.3145 46.4539 40.4813 46.2457C40.6446 46.042 40.8692 45.7888 41.1631 45.5259C41.313 45.3918 41.516 45.2236 41.7706 45.0491C42.0142 44.882 42.3918 44.6492 42.8888 44.4455C43.3649 44.2505 44.173 43.9904 45.2065 43.9978C46.3294 44.0058 47.6371 44.3374 48.8043 45.2285C49.9212 46.0812 50.4983 47.1314 50.7854 47.9015C51.0642 48.6491 51.1352 49.296 51.1555 49.6876C51.1769 50.1012 51.1514 50.4425 51.1255 50.6715C51.0986 50.9096 51.0616 51.1089 51.0301 51.2559C50.9212 51.7633 50.769 52.1405 50.725 52.2492L39.6022 47.7454C39.5581 47.8544 39.4058 48.2317 39.2969 48.7392C39.2654 48.8863 39.2284 49.0856 39.2015 49.3237C39.1756 49.5527 39.1501 49.894 39.1715 50.3076C39.1918 50.6992 39.2628 51.3461 39.5416 52.0938C39.8287 52.8638 40.4058 53.9141 41.5226 54.7667C42.6899 55.6578 43.9976 55.9894 45.1205 55.9975C46.1541 56.0049 46.9621 55.7448 47.4382 55.5497C47.9352 55.3461 48.3128 55.1132 48.5564 54.9462C48.811 54.7716 49.0141 54.6034 49.164 54.4693C49.4579 54.2064 49.6825 53.9532 49.8458 53.7495C50.0126 53.5413 50.1845 53.2984 50.3473 53.019C50.4816 52.7886 50.7507 52.2961 50.9412 51.6161C51.0364 51.2763 51.1774 50.6627 51.1625 49.8829C51.1478 49.1151 50.9689 47.7622 49.9947 46.4394C49.5001 45.7678 48.8738 45.2105 48.159 44.7987C47.4581 44.3948 46.767 44.1846 46.175 44.0834C45.0569 43.8922 44.1582 44.0642 43.7088 44.1765C43.2136 44.3003 42.8328 44.4631 42.6068 44.5695C42.3652 44.6833 42.1721 44.7941 42.0388 44.8754C41.7784 45.0343 41.5831 45.181 41.4756 45.2647C41.3569 45.3572 41.2619 45.4385 41.1965 45.4961C41.0682 45.6092 40.9703 45.7053 40.9151 45.7607L49.411 54.2353Z" fill="#FD5F07" mask="url(#path-7-inside-3_569_21)"/>
<circle cx="29.9405" cy="37.8722" r="4.94054" stroke="#FD5F07" stroke-width="2"/>
</g>
<defs>
<clipPath id="clip0_569_21">
<rect width="107" height="75" fill="white"/>
</clipPath>
</defs>
</svg>
